<svg viewBox="0 0 1466 825" version="1.1" xmlns="http://www.w3.org/2000/svg">
<defs>
<clipPath id="c0_8"><path d="M-.2 825.3V-.2H1467V825.3Z"/></clipPath>
<clipPath id="c1_8"><path d="M566.1 825.3V7.7H1467V825.3Z"/></clipPath>
<clipPath id="c2_8"><path d="M786.5 825.3V176.9h475.8V825.3Z"/></clipPath>
<clipPath id="c3_8"><path d="M920 705.9c-1.7 0-3.4-.4-4.8-1.3c-1.5-.8-2.7-2-3.6-3.5c-.8-1.5-1.3-3.1-1.3-4.9V305.8c0-1.7 .5-3.4 1.3-4.9c.9-1.4 2.1-2.7 3.6-3.5c1.4-.9 3.1-1.3 4.8-1.3h209.5c1.7 0 3.4 .4 4.8 1.3c1.5 .8 2.7 2.1 3.6 3.5c.8 1.5 1.3 3.2 1.3 4.9V696.2c0 1.7-.4 3.4-1.3 4.9c-.8 1.4-2 2.7-3.5 3.5c-1.5 .9-3.2 1.3-4.9 1.3H920Z"/></clipPath>
<clipPath id="c4_8"><path d="M204.4 825.3V176.9H680.2V825.3Z"/></clipPath>
<clipPath id="c5_8"><path d="M337.1 705.9c-1.7 0-3.4-.4-4.9-1.3c-1.5-.8-2.7-2-3.5-3.5c-.9-1.5-1.3-3.1-1.3-4.9V305.8c0-1.7 .4-3.4 1.3-4.9c.8-1.4 2-2.7 3.5-3.5c1.5-.9 3.2-1.3 4.9-1.3H546.5c1.7 0 3.4 .4 4.9 1.3c1.5 .8 2.7 2.1 3.5 3.5c.9 1.5 1.3 3.2 1.3 4.9l.1 390.4c0 1.7-.5 3.4-1.3 4.9c-.9 1.4-2.1 2.7-3.6 3.5c-1.4 .9-3.1 1.3-4.8 1.3H337.1Z"/></clipPath>
<clipPath id="c6_8"><path d="M1069.1 825.3V176.9H1467V825.3Z"/></clipPath>
<clipPath id="c7_8"><path d="M1206.9 705.9c-2.5 0-4.9-.6-7.1-1.8c-2.1-1.3-3.9-3.1-5.1-5.2c-1.3-2.2-1.9-4.6-1.9-7.1V310c0-2.4 .6-4.9 1.9-7c1.2-2.2 3-4 5.1-5.2c2.2-1.2 4.6-1.9 7.1-1.9h185.9c2.4 0 4.9 .7 7 1.9c2.2 1.2 3.9 3 5.2 5.2c1.2 2.1 1.9 4.6 1.9 7V691.8c0 2.5-.6 4.9-1.9 7c-1.2 2.2-3 4-5.1 5.2c-2.2 1.3-4.6 1.9-7.1 1.9H1206.9Z"/></clipPath>
<clipPath id="c8_8"><path d="M471.8 825.3V129.5h532.3V825.3Z"/></clipPath>
<clipPath id="c9_8"><path d="M607.2 784.6c-2.1 0-4.2-.5-6-1.6c-1.9-1-3.4-2.6-4.5-4.4c-1-1.9-1.6-3.9-1.6-6.1V261c0-2.2 .6-4.2 1.6-6.1c1.1-1.8 2.6-3.4 4.5-4.4c1.8-1.1 3.9-1.6 6-1.6H868.9c2.1 0 4.2 .5 6 1.6c1.9 1.1 3.4 2.6 4.5 4.4c1 1.9 1.6 4 1.6 6.1V772.5c0 2.1-.6 4.2-1.6 6.1c-1.1 1.8-2.6 3.3-4.5 4.4c-1.8 1.1-3.9 1.6-6 1.6H607.2Z"/></clipPath>
<clipPath id="ca_8"><path d="M-.2 825.3V176.9H406.7V825.3Z"/></clipPath>
<clipPath id="cb_8"><path d="M76.7 705.9c-1.7 0-3.2-.4-4.6-1.2c-1.4-.8-2.6-1.9-3.4-3.3c-.8-1.4-1.2-3-1.2-4.6V305.2c0-1.6 .4-3.2 1.2-4.5c.8-1.4 2-2.6 3.4-3.4c1.4-.8 3-1.2 4.6-1.2H274.2c1.6 0 3.2 .4 4.6 1.2c1.3 .8 2.5 2 3.3 3.4c.8 1.4 1.2 2.9 1.2 4.5l.1 391.6c0 1.6-.5 3.2-1.3 4.5c-.8 1.4-1.9 2.6-3.3 3.4c-1.4 .8-3 1.2-4.6 1.2H76.7Z"/></clipPath>
<style>
.g0_8{fill:#FFF;}
.g1_8{fill:#EA8D8D;}
.g2_8{fill:#E98D8F;}
.g3_8{fill:#E88D91;}
.g4_8{fill:#E68D93;}
.g5_8{fill:#E58D95;}
.g6_8{fill:#E48D97;}
.g7_8{fill:#E38D99;}
.g8_8{fill:#E28D9B;}
.g9_8{fill:#E18D9D;}
.ga_8{fill:#DF8D9F;}
.gb_8{fill:#DE8EA1;}
.gc_8{fill:#DD8EA3;}
.gd_8{fill:#DC8EA5;}
.ge_8{fill:#DB8EA7;}
.gf_8{fill:#DA8EA9;}
.gg_8{fill:#D88EAB;}
.gh_8{fill:#D78EAD;}
.gi_8{fill:#D68EAF;}
.gj_8{fill:#D58EB1;}
.gk_8{fill:#D48EB3;}
.gl_8{fill:#D28EB5;}
.gm_8{fill:#D18EB7;}
.gn_8{fill:#D08EB9;}
.go_8{fill:#CF8EBB;}
.gp_8{fill:#CE8EBD;}
.gq_8{fill:#CD8EBF;}
.gr_8{fill:#CB8EC1;}
.gs_8{fill:#CA8EC3;}
.gt_8{fill:#C98FC6;}
.gu_8{fill:#C88FC8;}
.gv_8{fill:#C78FCA;}
.gw_8{fill:#C58FCC;}
.gx_8{fill:#C48FCE;}
.gy_8{fill:#C38FD0;}
.gz_8{fill:#C28FD2;}
.g10_8{fill:#C18FD4;}
.g11_8{fill:#C08FD6;}
.g12_8{fill:#BE8FD8;}
.g13_8{fill:#BD8FDA;}
.g14_8{fill:#BC8FDC;}
.g15_8{fill:#BB8FDE;}
.g16_8{fill:#BA8FE0;}
.g17_8{fill:#B98FE2;}
.g18_8{fill:#B78FE4;}
.g19_8{fill:#B68FE6;}
.g1a_8{fill:#B58FE8;}
.g1b_8{fill:#B48FEA;}
.g1c_8{fill:#B390EC;}
.g1d_8{fill:#B190EE;}
.g1e_8{fill:#B090F0;}
.g1f_8{fill:#AF90F2;}
.g1g_8{fill:#AE90F4;}
.g1h_8{fill:#AD90F6;}
.g1i_8{fill:#AC90F8;}
.g1j_8{fill:#AA90FA;}
.g1k_8{fill:#A990FC;}
.g1l_8{fill:#A890FE;}
</style>
</defs>
<path clip-path="url(#c0_8)" fill-rule="evenodd" d="M0 0H1466.6V825H0V0Z" class="g0_8"/>
<path fill-rule="evenodd" d="M0 0H1466.7V825H0V0Z" class="g1_8"/>
<path fill-rule="evenodd" d="M0 14.3H1466.7V825H0V14.3Z" class="g2_8"/>
<path fill-rule="evenodd" d="M0 28.7H1466.7V825H0V28.7Z" class="g3_8"/>
<path fill-rule="evenodd" d="M0 43H1466.7V825H0V43Z" class="g4_8"/>
<path fill-rule="evenodd" d="M0 57.3H1466.7V825H0V57.3Z" class="g5_8"/>
<path fill-rule="evenodd" d="M0 71.6H1466.7V825H0V71.6Z" class="g6_8"/>
<path fill-rule="evenodd" d="M0 86H1466.7V825H0V86Z" class="g7_8"/>
<path fill-rule="evenodd" d="M0 100.3H1466.7V825H0V100.3Z" class="g8_8"/>
<path fill-rule="evenodd" d="M0 114.6H1466.7V825H0V114.6Z" class="g9_8"/>
<path fill-rule="evenodd" d="M0 129H1466.7V825H0V129Z" class="ga_8"/>
<path fill-rule="evenodd" d="M0 143.3H1466.7V825H0V143.3Z" class="gb_8"/>
<path fill-rule="evenodd" d="M0 157.6H1466.7V825H0V157.6Z" class="gc_8"/>
<path fill-rule="evenodd" d="M0 171.9H1466.7V825H0V171.9Z" class="gd_8"/>
<path fill-rule="evenodd" d="M0 186.3H1466.7V825H0V186.3Z" class="ge_8"/>
<path fill-rule="evenodd" d="M0 200.6H1466.7V825H0V200.6Z" class="gf_8"/>
<path fill-rule="evenodd" d="M0 214.9H1466.7V825H0V214.9Z" class="gg_8"/>
<path fill-rule="evenodd" d="M0 229.3H1466.7V825H0V229.3Z" class="gh_8"/>
<path fill-rule="evenodd" d="M0 243.6H1466.7V825H0V243.6Z" class="gi_8"/>
<path fill-rule="evenodd" d="M0 257.9H1466.7V825H0V257.9Z" class="gj_8"/>
<path fill-rule="evenodd" d="M0 272.3H1466.7V825H0V272.3Z" class="gk_8"/>
<path fill-rule="evenodd" d="M0 286.6H1466.7V825H0V286.6Z" class="gl_8"/>
<path fill-rule="evenodd" d="M0 300.9H1466.7V825H0V300.9Z" class="gm_8"/>
<path fill-rule="evenodd" d="M0 315.2H1466.7V825H0V315.2Z" class="gn_8"/>
<path fill-rule="evenodd" d="M0 329.6H1466.7V825H0V329.6Z" class="go_8"/>
<path fill-rule="evenodd" d="M0 343.9H1466.7V825H0V343.9Z" class="gp_8"/>
<path fill-rule="evenodd" d="M0 358.2H1466.7V825H0V358.2Z" class="gq_8"/>
<path fill-rule="evenodd" d="M0 372.6H1466.7V825H0V372.6Z" class="gr_8"/>
<path fill-rule="evenodd" d="M0 386.9H1466.7V825H0V386.9Z" class="gs_8"/>
<path fill-rule="evenodd" d="M0 401.2H1466.7V825H0V401.2Z" class="gt_8"/>
<path fill-rule="evenodd" d="M0 415.5H1466.7V825H0V415.5Z" class="gu_8"/>
<path fill-rule="evenodd" d="M0 429.9H1466.7V825H0V429.9Z" class="gv_8"/>
<path fill-rule="evenodd" d="M0 444.2H1466.7V825H0V444.2Z" class="gw_8"/>
<path fill-rule="evenodd" d="M0 458.5H1466.7V825H0V458.5Z" class="gx_8"/>
<path fill-rule="evenodd" d="M0 472.9H1466.7V825H0V472.9Z" class="gy_8"/>
<path fill-rule="evenodd" d="M0 487.2H1466.7V825H0V487.2Z" class="gz_8"/>
<path fill-rule="evenodd" d="M0 501.5H1466.7V825H0V501.5Z" class="g10_8"/>
<path fill-rule="evenodd" d="M0 515.8H1466.7V825H0V515.8Z" class="g11_8"/>
<path fill-rule="evenodd" d="M0 530.2H1466.7V825H0V530.2Z" class="g12_8"/>
<path fill-rule="evenodd" d="M0 544.5H1466.7V825H0V544.5Z" class="g13_8"/>
<path fill-rule="evenodd" d="M0 558.8H1466.7V825H0V558.8Z" class="g14_8"/>
<path fill-rule="evenodd" d="M0 573.2H1466.7V825H0V573.2Z" class="g15_8"/>
<path fill-rule="evenodd" d="M0 587.5H1466.7V825H0V587.5Z" class="g16_8"/>
<path fill-rule="evenodd" d="M0 601.8H1466.7V825H0V601.8Z" class="g17_8"/>
<path fill-rule="evenodd" d="M0 616.1H1466.7V825H0V616.1Z" class="g18_8"/>
<path fill-rule="evenodd" d="M0 630.5H1466.7V825H0V630.5Z" class="g19_8"/>
<path fill-rule="evenodd" d="M0 644.8H1466.7V825H0V644.8Z" class="g1a_8"/>
<path fill-rule="evenodd" d="M0 659.1H1466.7V825H0V659.1Z" class="g1b_8"/>
<path fill-rule="evenodd" d="M0 673.5H1466.7V825H0V673.5Z" class="g1c_8"/>
<path fill-rule="evenodd" d="M0 687.8H1466.7V825H0V687.8Z" class="g1d_8"/>
<path fill-rule="evenodd" d="M0 702.1H1466.7V825H0V702.1Z" class="g1e_8"/>
<path fill-rule="evenodd" d="M0 716.4H1466.7V825H0V716.4Z" class="g1f_8"/>
<path fill-rule="evenodd" d="M0 730.8H1466.7V825H0V730.8Z" class="g1g_8"/>
<path fill-rule="evenodd" d="M0 745.1H1466.7V825H0V745.1Z" class="g1h_8"/>
<path fill-rule="evenodd" d="M0 759.4H1466.7V825H0V759.4Z" class="g1i_8"/>
<path fill-rule="evenodd" d="M0 773.8H1466.7V825H0V773.8Z" class="g1j_8"/>
<path fill-rule="evenodd" d="M0 788.1H1466.7V825H0V788.1Z" class="g1k_8"/>
<path fill-rule="evenodd" d="M0 802.4H1466.7V825H0V802.4Z" class="g1l_8"/>
<g clip-path="url(#c1_8)">
<image preserveAspectRatio="none" x="1423" y="53" width="44" height="5" href="img/1.png"/>
<image preserveAspectRatio="none" x="566" y="211" width="344" height="614" href="img/2.png"/>
</g>
<g clip-path="url(#c2_8)" opacity="0.2">
<image preserveAspectRatio="none" x="788" y="178" width="473" height="655" href="img/3.png"/>
</g>
<image clip-path="url(#c3_8)" preserveAspectRatio="none" x="910" y="296" width="229" height="410" href="img/4.png"/>
<g clip-path="url(#c4_8)" opacity="0.2">
<image preserveAspectRatio="none" x="205" y="178" width="473" height="655" href="img/5.png"/>
</g>
<image clip-path="url(#c5_8)" preserveAspectRatio="none" x="327" y="296" width="229" height="410" href="img/6.png"/>
<g clip-path="url(#c6_8)" opacity="0.2">
<image preserveAspectRatio="none" x="1071" y="178" width="458" height="655" href="img/7.png"/>
</g>
<image clip-path="url(#c7_8)" preserveAspectRatio="none" x="1193" y="296" width="214" height="410" href="img/8.png"/>
<g clip-path="url(#c8_8)" opacity="0.2">
<image preserveAspectRatio="none" x="473" y="131" width="530" height="780" href="img/9.png"/>
</g>
<image clip-path="url(#c9_8)" preserveAspectRatio="none" x="595" y="249" width="286" height="536" href="img/10.png"/>
<g clip-path="url(#ca_8)" opacity="0.2">
<image preserveAspectRatio="none" x="-54" y="178" width="460" height="655" href="img/11.png"/>
</g>
<image clip-path="url(#cb_8)" preserveAspectRatio="none" x="68" y="296" width="215" height="410" href="img/12.png"/>
</svg>