<svg viewBox="0 0 1466 825" version="1.1" xmlns="http://www.w3.org/2000/svg">
<defs>
<clipPath id="c0_2"><path d="M-.2 825.3V-.2H1467V825.3Z"/></clipPath>
<clipPath id="c1_2"><path d="M1404.3 58.7V7.7H1467v51Z"/></clipPath>
<style>
.g0_2{fill:#FFF;}
.g1_2{fill:#EA8D8D;}
.g2_2{fill:#E98D8F;}
.g3_2{fill:#E88D91;}
.g4_2{fill:#E68D93;}
.g5_2{fill:#E58D95;}
.g6_2{fill:#E48D97;}
.g7_2{fill:#E38D99;}
.g8_2{fill:#E28D9B;}
.g9_2{fill:#E18D9D;}
.ga_2{fill:#DF8D9F;}
.gb_2{fill:#DE8EA1;}
.gc_2{fill:#DD8EA3;}
.gd_2{fill:#DC8EA5;}
.ge_2{fill:#DB8EA7;}
.gf_2{fill:#DA8EA9;}
.gg_2{fill:#D88EAB;}
.gh_2{fill:#D78EAD;}
.gi_2{fill:#D68EAF;}
.gj_2{fill:#D58EB1;}
.gk_2{fill:#D48EB3;}
.gl_2{fill:#D28EB5;}
.gm_2{fill:#D18EB7;}
.gn_2{fill:#D08EB9;}
.go_2{fill:#CF8EBB;}
.gp_2{fill:#CE8EBD;}
.gq_2{fill:#CD8EBF;}
.gr_2{fill:#CB8EC1;}
.gs_2{fill:#CA8EC3;}
.gt_2{fill:#C98FC6;}
.gu_2{fill:#C88FC8;}
.gv_2{fill:#C78FCA;}
.gw_2{fill:#C58FCC;}
.gx_2{fill:#C48FCE;}
.gy_2{fill:#C38FD0;}
.gz_2{fill:#C28FD2;}
.g10_2{fill:#C18FD4;}
.g11_2{fill:#C08FD6;}
.g12_2{fill:#BE8FD8;}
.g13_2{fill:#BD8FDA;}
.g14_2{fill:#BC8FDC;}
.g15_2{fill:#BB8FDE;}
.g16_2{fill:#BA8FE0;}
.g17_2{fill:#B98FE2;}
.g18_2{fill:#B78FE4;}
.g19_2{fill:#B68FE6;}
.g1a_2{fill:#B58FE8;}
.g1b_2{fill:#B48FEA;}
.g1c_2{fill:#B390EC;}
.g1d_2{fill:#B190EE;}
.g1e_2{fill:#B090F0;}
.g1f_2{fill:#AF90F2;}
.g1g_2{fill:#AE90F4;}
.g1h_2{fill:#AD90F6;}
.g1i_2{fill:#AC90F8;}
.g1j_2{fill:#AA90FA;}
.g1k_2{fill:#A990FC;}
.g1l_2{fill:#A890FE;}
</style>
</defs>
<path clip-path="url(#c0_2)" fill-rule="evenodd" d="M0 0H1466.6V825H0V0Z" class="g0_2"/>
<path fill-rule="evenodd" d="M0 0H1466.7V825H0V0Z" class="g1_2"/>
<path fill-rule="evenodd" d="M0 14.3H1466.7V825H0V14.3Z" class="g2_2"/>
<path fill-rule="evenodd" d="M0 28.7H1466.7V825H0V28.7Z" class="g3_2"/>
<path fill-rule="evenodd" d="M0 43H1466.7V825H0V43Z" class="g4_2"/>
<path fill-rule="evenodd" d="M0 57.3H1466.7V825H0V57.3Z" class="g5_2"/>
<path fill-rule="evenodd" d="M0 71.6H1466.7V825H0V71.6Z" class="g6_2"/>
<path fill-rule="evenodd" d="M0 86H1466.7V825H0V86Z" class="g7_2"/>
<path fill-rule="evenodd" d="M0 100.3H1466.7V825H0V100.3Z" class="g8_2"/>
<path fill-rule="evenodd" d="M0 114.6H1466.7V825H0V114.6Z" class="g9_2"/>
<path fill-rule="evenodd" d="M0 129H1466.7V825H0V129Z" class="ga_2"/>
<path fill-rule="evenodd" d="M0 143.3H1466.7V825H0V143.3Z" class="gb_2"/>
<path fill-rule="evenodd" d="M0 157.6H1466.7V825H0V157.6Z" class="gc_2"/>
<path fill-rule="evenodd" d="M0 171.9H1466.7V825H0V171.9Z" class="gd_2"/>
<path fill-rule="evenodd" d="M0 186.3H1466.7V825H0V186.3Z" class="ge_2"/>
<path fill-rule="evenodd" d="M0 200.6H1466.7V825H0V200.6Z" class="gf_2"/>
<path fill-rule="evenodd" d="M0 214.9H1466.7V825H0V214.9Z" class="gg_2"/>
<path fill-rule="evenodd" d="M0 229.3H1466.7V825H0V229.3Z" class="gh_2"/>
<path fill-rule="evenodd" d="M0 243.6H1466.7V825H0V243.6Z" class="gi_2"/>
<path fill-rule="evenodd" d="M0 257.9H1466.7V825H0V257.9Z" class="gj_2"/>
<path fill-rule="evenodd" d="M0 272.3H1466.7V825H0V272.3Z" class="gk_2"/>
<path fill-rule="evenodd" d="M0 286.6H1466.7V825H0V286.6Z" class="gl_2"/>
<path fill-rule="evenodd" d="M0 300.9H1466.7V825H0V300.9Z" class="gm_2"/>
<path fill-rule="evenodd" d="M0 315.2H1466.7V825H0V315.2Z" class="gn_2"/>
<path fill-rule="evenodd" d="M0 329.6H1466.7V825H0V329.6Z" class="go_2"/>
<path fill-rule="evenodd" d="M0 343.9H1466.7V825H0V343.9Z" class="gp_2"/>
<path fill-rule="evenodd" d="M0 358.2H1466.7V825H0V358.2Z" class="gq_2"/>
<path fill-rule="evenodd" d="M0 372.6H1466.7V825H0V372.6Z" class="gr_2"/>
<path fill-rule="evenodd" d="M0 386.9H1466.7V825H0V386.9Z" class="gs_2"/>
<path fill-rule="evenodd" d="M0 401.2H1466.7V825H0V401.2Z" class="gt_2"/>
<path fill-rule="evenodd" d="M0 415.5H1466.7V825H0V415.5Z" class="gu_2"/>
<path fill-rule="evenodd" d="M0 429.9H1466.7V825H0V429.9Z" class="gv_2"/>
<path fill-rule="evenodd" d="M0 444.2H1466.7V825H0V444.2Z" class="gw_2"/>
<path fill-rule="evenodd" d="M0 458.5H1466.7V825H0V458.5Z" class="gx_2"/>
<path fill-rule="evenodd" d="M0 472.9H1466.7V825H0V472.9Z" class="gy_2"/>
<path fill-rule="evenodd" d="M0 487.2H1466.7V825H0V487.2Z" class="gz_2"/>
<path fill-rule="evenodd" d="M0 501.5H1466.7V825H0V501.5Z" class="g10_2"/>
<path fill-rule="evenodd" d="M0 515.8H1466.7V825H0V515.8Z" class="g11_2"/>
<path fill-rule="evenodd" d="M0 530.2H1466.7V825H0V530.2Z" class="g12_2"/>
<path fill-rule="evenodd" d="M0 544.5H1466.7V825H0V544.5Z" class="g13_2"/>
<path fill-rule="evenodd" d="M0 558.8H1466.7V825H0V558.8Z" class="g14_2"/>
<path fill-rule="evenodd" d="M0 573.2H1466.7V825H0V573.2Z" class="g15_2"/>
<path fill-rule="evenodd" d="M0 587.5H1466.7V825H0V587.5Z" class="g16_2"/>
<path fill-rule="evenodd" d="M0 601.8H1466.7V825H0V601.8Z" class="g17_2"/>
<path fill-rule="evenodd" d="M0 616.1H1466.7V825H0V616.1Z" class="g18_2"/>
<path fill-rule="evenodd" d="M0 630.5H1466.7V825H0V630.5Z" class="g19_2"/>
<path fill-rule="evenodd" d="M0 644.8H1466.7V825H0V644.8Z" class="g1a_2"/>
<path fill-rule="evenodd" d="M0 659.1H1466.7V825H0V659.1Z" class="g1b_2"/>
<path fill-rule="evenodd" d="M0 673.5H1466.7V825H0V673.5Z" class="g1c_2"/>
<path fill-rule="evenodd" d="M0 687.8H1466.7V825H0V687.8Z" class="g1d_2"/>
<path fill-rule="evenodd" d="M0 702.1H1466.7V825H0V702.1Z" class="g1e_2"/>
<path fill-rule="evenodd" d="M0 716.4H1466.7V825H0V716.4Z" class="g1f_2"/>
<path fill-rule="evenodd" d="M0 730.8H1466.7V825H0V730.8Z" class="g1g_2"/>
<path fill-rule="evenodd" d="M0 745.1H1466.7V825H0V745.1Z" class="g1h_2"/>
<path fill-rule="evenodd" d="M0 759.4H1466.7V825H0V759.4Z" class="g1i_2"/>
<path fill-rule="evenodd" d="M0 773.8H1466.7V825H0V773.8Z" class="g1j_2"/>
<path fill-rule="evenodd" d="M0 788.1H1466.7V825H0V788.1Z" class="g1k_2"/>
<path fill-rule="evenodd" d="M0 802.4H1466.7V825H0V802.4Z" class="g1l_2"/>
<image clip-path="url(#c1_2)" preserveAspectRatio="none" x="1423" y="53" width="44" height="5" href="img/1.png"/>
<g clip-path="url(#c0_2)">
<image preserveAspectRatio="none" x="140" y="154" width="447" height="671" href="img/2.png"/>
<image preserveAspectRatio="none" x="596" y="149" width="103" height="6" href="img/3.png"/>
</g>
</svg>